<svg width="160" height="140" viewBox="0 0 160 140" fill="none" xmlns="http://www.w3.org/2000/svg">
<path fill-rule="evenodd" clip-rule="evenodd" d="M57.3044 0.0684049C59.9512 -0.0757752 62.6037 0.00810113 65.2356 0.318751C76.5294 1.71242 86.7987 7.55593 93.767 16.5523C102.67 28.0129 104.752 45.2113 94.7302 56.6891C91.7699 60.08 86.2351 63.0762 82.2612 65.3767C70.672 72.0858 58.2037 78.9126 45.3417 82.8208C42.269 83.7455 39.1612 84.5485 36.0255 85.2284C26.8145 87.2543 11.6508 89.5539 9.54941 100.857C8.66694 105.604 12.073 108.247 14.5307 111.432L14.6466 111.583C8.45519 110.002 1.48026 104.177 0.271634 97.6797C-1.83926 86.3831 8.76171 77.2642 17.8953 72.8446C24.3823 69.7051 30.1719 67.6835 34.2231 61.2055C36.8543 56.998 37.7626 53.0161 36.7028 48.1328C36.6397 47.948 36.5752 47.7637 36.5093 47.58C35.1819 43.89 32.7288 41.0774 29.1085 39.52C24.4938 37.535 18.1902 38.9421 16.1452 43.8558C15.599 45.152 15.4951 46.5918 15.8492 47.9532C17.1399 52.9457 21.8645 52.9183 22.4373 54.3789C22.1234 56.1406 19.1817 56.6922 17.6561 56.7391C14.0881 56.8488 11.1441 55.4166 8.56459 53.0772C2.34151 47.4335 4.28068 38.6825 9.59296 33.1724C13.7264 28.8749 19.6642 26.6233 25.6635 26.5477C39.6768 26.3665 52.9169 37.7022 52.8876 52.1284C52.8683 61.677 48.6041 68.9224 42.0947 75.4956C51.3388 70.4552 58.1945 59.7368 57.9694 49.0914C57.7506 41.9928 54.6971 35.2777 49.4918 30.4463C42.1333 23.5031 33.8098 21.796 24.1101 22.0975C29.502 8.54415 43.2823 1.08221 57.3044 0.0684049ZM90.3829 47.7734C90.0628 44.7174 87.3133 42.5079 84.26 42.8533C81.2437 43.1947 79.0659 45.9051 79.3819 48.9252C79.6979 51.9454 82.39 54.1459 85.4118 53.8549C88.4705 53.5605 90.703 50.8294 90.3829 47.7734Z" fill="#eee"/>
<path d="M154 28.2141C157.897 27.9269 159.718 31.88 158.142 33.7634C152.721 40.2369 145.289 46.9865 139.339 53.1372C136.681 56.4233 132.028 52.7022 129.155 54.3553C125.634 56.3822 121.53 59.475 118.232 61.8614C110.604 67.434 103.175 73.2712 95.9547 79.3619C77.7075 94.7158 57.9908 113.055 49.676 136.072C49.1999 137.39 48.8168 138.735 48.2093 140.001C45.8583 133.826 46.5912 124.024 47.5774 117.548C47.8331 115.963 48.1499 114.387 48.5269 112.825C49.0303 110.821 51.2902 105.335 47.5788 105.227C38.8146 104.971 29.9967 105.337 21.2305 105.074C23.6481 103.651 27.1216 101.95 29.6755 100.573C35.9617 97.2178 42.2105 93.7924 48.4206 90.2987C65.4562 80.5752 82.4106 70.7106 99.2816 60.7054L114.921 51.4868C118.107 49.6498 121.479 47.9144 124.479 45.7919C126.327 44.4846 126.015 41.5032 127.799 40.5479C129.898 39.4247 132.169 38.3889 134.32 37.3657L143.245 33.0518C145.706 31.8777 151.714 28.7047 154 28.2141Z" fill="#eee"/>
<path d="M117.424 67.9707C119.655 69.1941 123.918 74.6147 125.251 77.0465C127.885 81.8248 128.491 87.458 126.937 92.6863C123.94 102.709 113.756 108.441 104.032 110.154C95.9594 111.576 88.9787 110.734 81.2484 108.423C79.0241 107.661 77.1336 107.024 75.0078 105.992C79.8134 100.63 84.0281 96.6137 89.4315 91.9052C93.6284 93.3443 95.7775 94.358 100.408 94.317C107.167 94.2568 113.986 90.3129 113.724 82.8248C113.587 78.9398 111.791 76.8331 109.104 74.2402C111.743 72.212 114.711 69.8351 117.424 67.9707Z" fill="#eee"/>
</svg>
